<?xml version="1.0" standalone="no"?>
<!DOCTYPE svg PUBLIC "-//W3C//DTD SVG 20010904//EN"
 "http://www.w3.org/TR/2001/REC-SVG-20010904/DTD/svg10.dtd">
<svg version="1.0" xmlns="http://www.w3.org/2000/svg"
 width="512.000000pt" height="512.000000pt" viewBox="0 0 512.000000 512.000000"
 preserveAspectRatio="xMidYMid meet">

<g transform="translate(0.000000,512.000000) scale(0.100000,-0.100000)"
fill="#000000" stroke="none">
<path d="M111 3600 c-45 -11 -90 -58 -101 -106 -5 -21 -10 -315 -10 -652 0
-679 -2 -658 64 -705 30 -21 40 -22 294 -25 l264 -3 -9 43 c-10 55 -11 1370 0
1421 l8 37 -238 -1 c-131 -1 -253 -5 -272 -9z"/>
<path d="M1133 2689 c-44 -22 -83 -82 -83 -129 0 -48 39 -108 84 -129 38 -19
61 -21 216 -21 155 0 178 2 216 21 45 21 84 81 84 129 0 48 -39 108 -84 129
-38 19 -61 21 -217 21 -156 0 -178 -2 -216 -21z"/>
<path d="M900 1228 c0 -620 4 -687 40 -758 22 -42 83 -102 125 -123 75 -38
195 -38 270 0 42 21 103 81 125 123 33 64 40 146 40 446 l0 293 249 3 c275 3
274 3 325 72 20 26 21 43 24 277 l3 249 -151 0 -150 0 0 -150 0 -150 -150 0
-150 0 0 150 0 149 -277 4 c-153 2 -288 7 -300 11 l-23 8 0 -604z"/>
</g>
</svg>
